<svg width="336" height="475" viewBox="0 0 336 475" fill="none" xmlns="http://www.w3.org/2000/svg">
<path d="M167.522 474.441C131.715 474.441 101.237 465.277 76.0869 446.947C51.3631 428.617 32.394 401.762 19.1796 366.382C6.39146 331.001 -0.0026151 288.161 -0.0026151 237.861C-0.0026151 186.708 6.39146 143.441 19.1796 108.061C32.394 72.6803 51.3631 45.8251 76.0869 27.4955C101.237 9.16577 131.715 0.000929511 167.522 0.000929511C203.329 0.000929511 233.594 9.16577 258.318 27.4955C283.468 45.8251 302.437 72.6803 315.225 108.061C328.44 143.441 335.047 186.708 335.047 237.861C335.047 288.161 328.44 331.001 315.225 366.382C302.437 401.762 283.468 428.617 258.318 446.947C233.594 465.277 203.329 474.441 167.522 474.441ZM167.522 420.731C190.967 420.731 210.789 413.911 226.987 400.27C243.612 386.203 256.187 365.529 264.712 338.248C273.238 310.966 277.5 277.504 277.5 237.861C277.5 198.217 273.238 164.755 264.712 137.474C256.187 109.766 243.612 88.8786 226.987 74.8116C210.789 60.7447 190.967 53.7112 167.522 53.7112C144.077 53.7112 124.042 60.7447 107.418 74.8116C91.2196 88.8786 78.8577 109.766 70.3322 137.474C61.8068 164.755 57.5441 198.217 57.5441 237.861C57.5441 277.504 61.8068 310.966 70.3322 338.248C78.8577 365.529 91.2196 386.203 107.418 400.27C124.042 413.911 144.077 420.731 167.522 420.731Z" fill="#DEEFFF"/>
</svg>
